<?xml version="1.0" standalone="no"?>
<!DOCTYPE svg PUBLIC "-//W3C//DTD SVG 20010904//EN"
 "http://www.w3.org/TR/2001/REC-SVG-20010904/DTD/svg10.dtd">
<svg version="1.0" xmlns="http://www.w3.org/2000/svg"
 width="700.000000pt" height="700.000000pt" viewBox="0 0 700.000000 700.000000"
 preserveAspectRatio="xMidYMid meet">
<metadata>
Created by potrace 1.14, written by Peter Selinger 2001-2017
</metadata>
<g transform="translate(0.000000,700.000000) scale(0.100000,-0.100000)"
fill="#000000" stroke="none">
<path d="M3437 6409 c-61 -14 -112 -45 -155 -94 -63 -71 -72 -111 -72 -310 l0
-172 -1057 0 -1058 0 -80 -22 c-206 -57 -372 -230 -418 -436 -11 -49 -13 -366
-12 -1750 l1 -1690 26 -72 c37 -103 72 -159 147 -233 89 -88 206 -148 322
-165 24 -4 216 -7 427 -7 210 -1 382 -2 382 -4 0 -5 -26 -52 -233 -409 -105
-181 -201 -353 -213 -380 -32 -70 -36 -138 -12 -211 55 -167 239 -246 400
-170 30 14 67 40 83 58 25 28 155 244 252 418 36 65 272 476 349 606 l53 91
939 0 940 0 34 -61 c19 -33 97 -169 173 -301 76 -132 148 -256 159 -277 12
-20 43 -74 70 -120 26 -45 60 -103 74 -128 125 -222 146 -249 232 -289 200
-92 428 70 407 289 -6 61 -30 116 -98 229 -22 34 -39 65 -39 67 0 3 -72 129
-99 174 -14 22 -150 259 -174 300 -10 19 -30 54 -43 76 l-24 41 377 1 c208 0
394 3 413 6 75 13 97 19 145 39 172 71 310 237 348 417 11 53 13 365 12 1745
l-1 1680 -22 70 c-62 199 -220 348 -422 401 -59 15 -163 17 -1122 17 l-1058 1
0 173 c0 201 -10 243 -80 316 -67 72 -180 108 -273 86z m2395 -1171 c3 -11 2
-3104 -1 -3174 l-1 -21 -2330 0 c-1692 0 -2330 3 -2331 11 -3 39 -3 3164 0
3179 3 16 122 17 2331 17 1854 0 2329 -3 2332 -12z"/>
<path d="M3007 4368 c-91 -19 -124 -48 -572 -500 -400 -402 -442 -448 -459
-495 -29 -86 -22 -176 20 -248 80 -138 250 -186 394 -110 19 10 178 161 354
337 l320 319 350 -350 c193 -192 367 -358 387 -369 43 -24 86 -34 142 -33 117
1 126 8 609 490 374 374 441 445 463 493 67 147 6 312 -142 385 -64 31 -145
34 -224 8 -50 -16 -80 -43 -379 -341 -179 -178 -329 -324 -334 -324 -4 0 -164
156 -354 347 -285 284 -356 350 -399 369 -59 26 -121 34 -176 22z"/>
</g>
</svg>
